<mxfile host="app.diagrams.net" agent="Mozilla/5.0 (Windows NT 10.0; Win64; x64) AppleWebKit/537.36 (KHTML, like Gecko) Chrome/136.0.0.0 Safari/537.36" version="27.0.3">
  <diagram name="Page-1" id="oe8NfqMM-FBmbr3iMwT2">
    <mxGraphModel dx="872" dy="839" grid="0" gridSize="10" guides="1" tooltips="1" connect="1" arrows="1" fold="1" page="0" pageScale="1" pageWidth="827" pageHeight="1169" background="#ffffff" math="1" shadow="1">
      <root>
        <mxCell id="0" />
        <mxCell id="1" parent="0" />
        <mxCell id="iNIz_9RFhrjVPNJya08O-1" value="Location_Dim" style="shape=table;startSize=30;container=1;collapsible=1;childLayout=tableLayout;fixedRows=1;rowLines=0;fontStyle=1;align=center;resizeLast=1;html=1;" parent="1" vertex="1">
          <mxGeometry x="14" y="154" width="217.75" height="284" as="geometry" />
        </mxCell>
        <mxCell id="iNIz_9RFhrjVPNJya08O-2" value="" style="shape=tableRow;horizontal=0;startSize=0;swimlaneHead=0;swimlaneBody=0;fillColor=none;collapsible=0;dropTarget=0;points=[[0,0.5],[1,0.5]];portConstraint=eastwest;top=0;left=0;right=0;bottom=1;" parent="iNIz_9RFhrjVPNJya08O-1" vertex="1">
          <mxGeometry y="30" width="217.75" height="30" as="geometry" />
        </mxCell>
        <mxCell id="iNIz_9RFhrjVPNJya08O-3" value="PK" style="shape=partialRectangle;connectable=0;fillColor=none;top=0;left=0;bottom=0;right=0;fontStyle=1;overflow=hidden;whiteSpace=wrap;html=1;" parent="iNIz_9RFhrjVPNJya08O-2" vertex="1">
          <mxGeometry width="30" height="30" as="geometry">
            <mxRectangle width="30" height="30" as="alternateBounds" />
          </mxGeometry>
        </mxCell>
        <mxCell id="iNIz_9RFhrjVPNJya08O-4" value="location_id" style="shape=partialRectangle;connectable=0;fillColor=none;top=0;left=0;bottom=0;right=0;align=left;spacingLeft=6;fontStyle=5;overflow=hidden;whiteSpace=wrap;html=1;" parent="iNIz_9RFhrjVPNJya08O-2" vertex="1">
          <mxGeometry x="30" width="187.75" height="30" as="geometry">
            <mxRectangle width="187.75" height="30" as="alternateBounds" />
          </mxGeometry>
        </mxCell>
        <mxCell id="iNIz_9RFhrjVPNJya08O-5" value="" style="shape=tableRow;horizontal=0;startSize=0;swimlaneHead=0;swimlaneBody=0;fillColor=none;collapsible=0;dropTarget=0;points=[[0,0.5],[1,0.5]];portConstraint=eastwest;top=0;left=0;right=0;bottom=0;" parent="iNIz_9RFhrjVPNJya08O-1" vertex="1">
          <mxGeometry y="60" width="217.75" height="41" as="geometry" />
        </mxCell>
        <mxCell id="iNIz_9RFhrjVPNJya08O-6" value="" style="shape=partialRectangle;connectable=0;fillColor=none;top=0;left=0;bottom=0;right=0;editable=1;overflow=hidden;whiteSpace=wrap;html=1;" parent="iNIz_9RFhrjVPNJya08O-5" vertex="1">
          <mxGeometry width="30" height="41" as="geometry">
            <mxRectangle width="30" height="41" as="alternateBounds" />
          </mxGeometry>
        </mxCell>
        <mxCell id="iNIz_9RFhrjVPNJya08O-7" value="addressLine1 VARCHAR (255)" style="shape=partialRectangle;connectable=0;fillColor=none;top=0;left=0;bottom=0;right=0;align=left;spacingLeft=6;overflow=hidden;whiteSpace=wrap;html=1;" parent="iNIz_9RFhrjVPNJya08O-5" vertex="1">
          <mxGeometry x="30" width="187.75" height="41" as="geometry">
            <mxRectangle width="187.75" height="41" as="alternateBounds" />
          </mxGeometry>
        </mxCell>
        <mxCell id="iNIz_9RFhrjVPNJya08O-8" value="" style="shape=tableRow;horizontal=0;startSize=0;swimlaneHead=0;swimlaneBody=0;fillColor=none;collapsible=0;dropTarget=0;points=[[0,0.5],[1,0.5]];portConstraint=eastwest;top=0;left=0;right=0;bottom=0;" parent="iNIz_9RFhrjVPNJya08O-1" vertex="1">
          <mxGeometry y="101" width="217.75" height="43" as="geometry" />
        </mxCell>
        <mxCell id="iNIz_9RFhrjVPNJya08O-9" value="" style="shape=partialRectangle;connectable=0;fillColor=none;top=0;left=0;bottom=0;right=0;editable=1;overflow=hidden;whiteSpace=wrap;html=1;" parent="iNIz_9RFhrjVPNJya08O-8" vertex="1">
          <mxGeometry width="30" height="43" as="geometry">
            <mxRectangle width="30" height="43" as="alternateBounds" />
          </mxGeometry>
        </mxCell>
        <mxCell id="iNIz_9RFhrjVPNJya08O-10" value="city VARCHAR(100)" style="shape=partialRectangle;connectable=0;fillColor=none;top=0;left=0;bottom=0;right=0;align=left;spacingLeft=6;overflow=hidden;whiteSpace=wrap;html=1;" parent="iNIz_9RFhrjVPNJya08O-8" vertex="1">
          <mxGeometry x="30" width="187.75" height="43" as="geometry">
            <mxRectangle width="187.75" height="43" as="alternateBounds" />
          </mxGeometry>
        </mxCell>
        <mxCell id="iNIz_9RFhrjVPNJya08O-11" value="" style="shape=tableRow;horizontal=0;startSize=0;swimlaneHead=0;swimlaneBody=0;fillColor=none;collapsible=0;dropTarget=0;points=[[0,0.5],[1,0.5]];portConstraint=eastwest;top=0;left=0;right=0;bottom=0;" parent="iNIz_9RFhrjVPNJya08O-1" vertex="1">
          <mxGeometry y="144" width="217.75" height="30" as="geometry" />
        </mxCell>
        <mxCell id="iNIz_9RFhrjVPNJya08O-12" value="" style="shape=partialRectangle;connectable=0;fillColor=none;top=0;left=0;bottom=0;right=0;editable=1;overflow=hidden;whiteSpace=wrap;html=1;" parent="iNIz_9RFhrjVPNJya08O-11" vertex="1">
          <mxGeometry width="30" height="30" as="geometry">
            <mxRectangle width="30" height="30" as="alternateBounds" />
          </mxGeometry>
        </mxCell>
        <mxCell id="iNIz_9RFhrjVPNJya08O-13" value="state VARCHAR (50)" style="shape=partialRectangle;connectable=0;fillColor=none;top=0;left=0;bottom=0;right=0;align=left;spacingLeft=6;overflow=hidden;whiteSpace=wrap;html=1;" parent="iNIz_9RFhrjVPNJya08O-11" vertex="1">
          <mxGeometry x="30" width="187.75" height="30" as="geometry">
            <mxRectangle width="187.75" height="30" as="alternateBounds" />
          </mxGeometry>
        </mxCell>
        <mxCell id="iNIz_9RFhrjVPNJya08O-198" value="" style="shape=tableRow;horizontal=0;startSize=0;swimlaneHead=0;swimlaneBody=0;fillColor=none;collapsible=0;dropTarget=0;points=[[0,0.5],[1,0.5]];portConstraint=eastwest;top=0;left=0;right=0;bottom=0;" parent="iNIz_9RFhrjVPNJya08O-1" vertex="1">
          <mxGeometry y="174" width="217.75" height="30" as="geometry" />
        </mxCell>
        <mxCell id="iNIz_9RFhrjVPNJya08O-199" value="" style="shape=partialRectangle;connectable=0;fillColor=none;top=0;left=0;bottom=0;right=0;editable=1;overflow=hidden;whiteSpace=wrap;html=1;" parent="iNIz_9RFhrjVPNJya08O-198" vertex="1">
          <mxGeometry width="30" height="30" as="geometry">
            <mxRectangle width="30" height="30" as="alternateBounds" />
          </mxGeometry>
        </mxCell>
        <mxCell id="iNIz_9RFhrjVPNJya08O-200" value="zipCode INTEGER" style="shape=partialRectangle;connectable=0;fillColor=none;top=0;left=0;bottom=0;right=0;align=left;spacingLeft=6;overflow=hidden;whiteSpace=wrap;html=1;" parent="iNIz_9RFhrjVPNJya08O-198" vertex="1">
          <mxGeometry x="30" width="187.75" height="30" as="geometry">
            <mxRectangle width="187.75" height="30" as="alternateBounds" />
          </mxGeometry>
        </mxCell>
        <mxCell id="iNIz_9RFhrjVPNJya08O-201" value="" style="shape=tableRow;horizontal=0;startSize=0;swimlaneHead=0;swimlaneBody=0;fillColor=none;collapsible=0;dropTarget=0;points=[[0,0.5],[1,0.5]];portConstraint=eastwest;top=0;left=0;right=0;bottom=0;" parent="iNIz_9RFhrjVPNJya08O-1" vertex="1">
          <mxGeometry y="204" width="217.75" height="30" as="geometry" />
        </mxCell>
        <mxCell id="iNIz_9RFhrjVPNJya08O-202" value="" style="shape=partialRectangle;connectable=0;fillColor=none;top=0;left=0;bottom=0;right=0;editable=1;overflow=hidden;whiteSpace=wrap;html=1;" parent="iNIz_9RFhrjVPNJya08O-201" vertex="1">
          <mxGeometry width="30" height="30" as="geometry">
            <mxRectangle width="30" height="30" as="alternateBounds" />
          </mxGeometry>
        </mxCell>
        <mxCell id="iNIz_9RFhrjVPNJya08O-203" value="county VARCHAR(100)" style="shape=partialRectangle;connectable=0;fillColor=none;top=0;left=0;bottom=0;right=0;align=left;spacingLeft=6;overflow=hidden;whiteSpace=wrap;html=1;" parent="iNIz_9RFhrjVPNJya08O-201" vertex="1">
          <mxGeometry x="30" width="187.75" height="30" as="geometry">
            <mxRectangle width="187.75" height="30" as="alternateBounds" />
          </mxGeometry>
        </mxCell>
        <mxCell id="iNIz_9RFhrjVPNJya08O-204" value="" style="shape=tableRow;horizontal=0;startSize=0;swimlaneHead=0;swimlaneBody=0;fillColor=none;collapsible=0;dropTarget=0;points=[[0,0.5],[1,0.5]];portConstraint=eastwest;top=0;left=0;right=0;bottom=0;" parent="iNIz_9RFhrjVPNJya08O-1" vertex="1">
          <mxGeometry y="234" width="217.75" height="50" as="geometry" />
        </mxCell>
        <mxCell id="iNIz_9RFhrjVPNJya08O-205" value="" style="shape=partialRectangle;connectable=0;fillColor=none;top=0;left=0;bottom=0;right=0;editable=1;overflow=hidden;whiteSpace=wrap;html=1;" parent="iNIz_9RFhrjVPNJya08O-204" vertex="1">
          <mxGeometry width="30" height="50" as="geometry">
            <mxRectangle width="30" height="50" as="alternateBounds" />
          </mxGeometry>
        </mxCell>
        <mxCell id="iNIz_9RFhrjVPNJya08O-206" value="county VARCHAR(100)" style="shape=partialRectangle;connectable=0;fillColor=none;top=0;left=0;bottom=0;right=0;align=left;spacingLeft=6;overflow=hidden;whiteSpace=wrap;html=1;" parent="iNIz_9RFhrjVPNJya08O-204" vertex="1">
          <mxGeometry x="30" width="187.75" height="50" as="geometry">
            <mxRectangle width="187.75" height="50" as="alternateBounds" />
          </mxGeometry>
        </mxCell>
        <mxCell id="iNIz_9RFhrjVPNJya08O-14" value="Features_Dim" style="shape=table;startSize=33;container=1;collapsible=1;childLayout=tableLayout;fixedRows=1;rowLines=0;fontStyle=1;align=center;resizeLast=1;html=1;" parent="1" vertex="1">
          <mxGeometry x="674" y="231" width="180" height="143" as="geometry" />
        </mxCell>
        <mxCell id="iNIz_9RFhrjVPNJya08O-15" value="" style="shape=tableRow;horizontal=0;startSize=0;swimlaneHead=0;swimlaneBody=0;fillColor=none;collapsible=0;dropTarget=0;points=[[0,0.5],[1,0.5]];portConstraint=eastwest;top=0;left=0;right=0;bottom=1;" parent="iNIz_9RFhrjVPNJya08O-14" vertex="1">
          <mxGeometry y="33" width="180" height="30" as="geometry" />
        </mxCell>
        <mxCell id="iNIz_9RFhrjVPNJya08O-16" value="PK" style="shape=partialRectangle;connectable=0;fillColor=none;top=0;left=0;bottom=0;right=0;fontStyle=1;overflow=hidden;whiteSpace=wrap;html=1;" parent="iNIz_9RFhrjVPNJya08O-15" vertex="1">
          <mxGeometry width="30" height="30" as="geometry">
            <mxRectangle width="30" height="30" as="alternateBounds" />
          </mxGeometry>
        </mxCell>
        <mxCell id="iNIz_9RFhrjVPNJya08O-17" value="features_id" style="shape=partialRectangle;connectable=0;fillColor=none;top=0;left=0;bottom=0;right=0;align=left;spacingLeft=6;fontStyle=5;overflow=hidden;whiteSpace=wrap;html=1;" parent="iNIz_9RFhrjVPNJya08O-15" vertex="1">
          <mxGeometry x="30" width="150" height="30" as="geometry">
            <mxRectangle width="150" height="30" as="alternateBounds" />
          </mxGeometry>
        </mxCell>
        <mxCell id="iNIz_9RFhrjVPNJya08O-18" value="" style="shape=tableRow;horizontal=0;startSize=0;swimlaneHead=0;swimlaneBody=0;fillColor=none;collapsible=0;dropTarget=0;points=[[0,0.5],[1,0.5]];portConstraint=eastwest;top=0;left=0;right=0;bottom=0;" parent="iNIz_9RFhrjVPNJya08O-14" vertex="1">
          <mxGeometry y="63" width="180" height="30" as="geometry" />
        </mxCell>
        <mxCell id="iNIz_9RFhrjVPNJya08O-19" value="" style="shape=partialRectangle;connectable=0;fillColor=none;top=0;left=0;bottom=0;right=0;editable=1;overflow=hidden;whiteSpace=wrap;html=1;" parent="iNIz_9RFhrjVPNJya08O-18" vertex="1">
          <mxGeometry width="30" height="30" as="geometry">
            <mxRectangle width="30" height="30" as="alternateBounds" />
          </mxGeometry>
        </mxCell>
        <mxCell id="iNIz_9RFhrjVPNJya08O-20" value="features TEXT" style="shape=partialRectangle;connectable=0;fillColor=none;top=0;left=0;bottom=0;right=0;align=left;spacingLeft=6;overflow=hidden;whiteSpace=wrap;html=1;" parent="iNIz_9RFhrjVPNJya08O-18" vertex="1">
          <mxGeometry x="30" width="150" height="30" as="geometry">
            <mxRectangle width="150" height="30" as="alternateBounds" />
          </mxGeometry>
        </mxCell>
        <mxCell id="iNIz_9RFhrjVPNJya08O-21" value="" style="shape=tableRow;horizontal=0;startSize=0;swimlaneHead=0;swimlaneBody=0;fillColor=none;collapsible=0;dropTarget=0;points=[[0,0.5],[1,0.5]];portConstraint=eastwest;top=0;left=0;right=0;bottom=0;" parent="iNIz_9RFhrjVPNJya08O-14" vertex="1">
          <mxGeometry y="93" width="180" height="30" as="geometry" />
        </mxCell>
        <mxCell id="iNIz_9RFhrjVPNJya08O-22" value="" style="shape=partialRectangle;connectable=0;fillColor=none;top=0;left=0;bottom=0;right=0;editable=1;overflow=hidden;whiteSpace=wrap;html=1;" parent="iNIz_9RFhrjVPNJya08O-21" vertex="1">
          <mxGeometry width="30" height="30" as="geometry">
            <mxRectangle width="30" height="30" as="alternateBounds" />
          </mxGeometry>
        </mxCell>
        <mxCell id="iNIz_9RFhrjVPNJya08O-23" value="propertyType TEXT" style="shape=partialRectangle;connectable=0;fillColor=none;top=0;left=0;bottom=0;right=0;align=left;spacingLeft=6;overflow=hidden;whiteSpace=wrap;html=1;" parent="iNIz_9RFhrjVPNJya08O-21" vertex="1">
          <mxGeometry x="30" width="150" height="30" as="geometry">
            <mxRectangle width="150" height="30" as="alternateBounds" />
          </mxGeometry>
        </mxCell>
        <mxCell id="iNIz_9RFhrjVPNJya08O-24" value="" style="shape=tableRow;horizontal=0;startSize=0;swimlaneHead=0;swimlaneBody=0;fillColor=none;collapsible=0;dropTarget=0;points=[[0,0.5],[1,0.5]];portConstraint=eastwest;top=0;left=0;right=0;bottom=0;" parent="iNIz_9RFhrjVPNJya08O-14" vertex="1">
          <mxGeometry y="123" width="180" height="20" as="geometry" />
        </mxCell>
        <mxCell id="iNIz_9RFhrjVPNJya08O-25" value="" style="shape=partialRectangle;connectable=0;fillColor=none;top=0;left=0;bottom=0;right=0;editable=1;overflow=hidden;whiteSpace=wrap;html=1;" parent="iNIz_9RFhrjVPNJya08O-24" vertex="1">
          <mxGeometry width="30" height="20" as="geometry">
            <mxRectangle width="30" height="20" as="alternateBounds" />
          </mxGeometry>
        </mxCell>
        <mxCell id="iNIz_9RFhrjVPNJya08O-26" value="" style="shape=partialRectangle;connectable=0;fillColor=none;top=0;left=0;bottom=0;right=0;align=left;spacingLeft=6;overflow=hidden;whiteSpace=wrap;html=1;" parent="iNIz_9RFhrjVPNJya08O-24" vertex="1">
          <mxGeometry x="30" width="150" height="20" as="geometry">
            <mxRectangle width="150" height="20" as="alternateBounds" />
          </mxGeometry>
        </mxCell>
        <mxCell id="iNIz_9RFhrjVPNJya08O-27" value="Owner_Dim" style="shape=table;startSize=28;container=1;collapsible=1;childLayout=tableLayout;fixedRows=1;rowLines=0;fontStyle=1;align=center;resizeLast=1;html=1;" parent="1" vertex="1">
          <mxGeometry x="710" y="83" width="202.75" height="120" as="geometry" />
        </mxCell>
        <mxCell id="iNIz_9RFhrjVPNJya08O-28" value="" style="shape=tableRow;horizontal=0;startSize=0;swimlaneHead=0;swimlaneBody=0;fillColor=none;collapsible=0;dropTarget=0;points=[[0,0.5],[1,0.5]];portConstraint=eastwest;top=0;left=0;right=0;bottom=1;" parent="iNIz_9RFhrjVPNJya08O-27" vertex="1">
          <mxGeometry y="28" width="202.75" height="30" as="geometry" />
        </mxCell>
        <mxCell id="iNIz_9RFhrjVPNJya08O-29" value="PK" style="shape=partialRectangle;connectable=0;fillColor=none;top=0;left=0;bottom=0;right=0;fontStyle=1;overflow=hidden;whiteSpace=wrap;html=1;" parent="iNIz_9RFhrjVPNJya08O-28" vertex="1">
          <mxGeometry width="30" height="30" as="geometry">
            <mxRectangle width="30" height="30" as="alternateBounds" />
          </mxGeometry>
        </mxCell>
        <mxCell id="iNIz_9RFhrjVPNJya08O-30" value="owner_id" style="shape=partialRectangle;connectable=0;fillColor=none;top=0;left=0;bottom=0;right=0;align=left;spacingLeft=6;fontStyle=5;overflow=hidden;whiteSpace=wrap;html=1;" parent="iNIz_9RFhrjVPNJya08O-28" vertex="1">
          <mxGeometry x="30" width="172.75" height="30" as="geometry">
            <mxRectangle width="172.75" height="30" as="alternateBounds" />
          </mxGeometry>
        </mxCell>
        <mxCell id="iNIz_9RFhrjVPNJya08O-31" value="" style="shape=tableRow;horizontal=0;startSize=0;swimlaneHead=0;swimlaneBody=0;fillColor=none;collapsible=0;dropTarget=0;points=[[0,0.5],[1,0.5]];portConstraint=eastwest;top=0;left=0;right=0;bottom=0;" parent="iNIz_9RFhrjVPNJya08O-27" vertex="1">
          <mxGeometry y="58" width="202.75" height="30" as="geometry" />
        </mxCell>
        <mxCell id="iNIz_9RFhrjVPNJya08O-32" value="" style="shape=partialRectangle;connectable=0;fillColor=none;top=0;left=0;bottom=0;right=0;editable=1;overflow=hidden;whiteSpace=wrap;html=1;" parent="iNIz_9RFhrjVPNJya08O-31" vertex="1">
          <mxGeometry width="30" height="30" as="geometry">
            <mxRectangle width="30" height="30" as="alternateBounds" />
          </mxGeometry>
        </mxCell>
        <mxCell id="iNIz_9RFhrjVPNJya08O-33" value="owner TEXT" style="shape=partialRectangle;connectable=0;fillColor=none;top=0;left=0;bottom=0;right=0;align=left;spacingLeft=6;overflow=hidden;whiteSpace=wrap;html=1;" parent="iNIz_9RFhrjVPNJya08O-31" vertex="1">
          <mxGeometry x="30" width="172.75" height="30" as="geometry">
            <mxRectangle width="172.75" height="30" as="alternateBounds" />
          </mxGeometry>
        </mxCell>
        <mxCell id="iNIz_9RFhrjVPNJya08O-34" value="" style="shape=tableRow;horizontal=0;startSize=0;swimlaneHead=0;swimlaneBody=0;fillColor=none;collapsible=0;dropTarget=0;points=[[0,0.5],[1,0.5]];portConstraint=eastwest;top=0;left=0;right=0;bottom=0;" parent="iNIz_9RFhrjVPNJya08O-27" vertex="1">
          <mxGeometry y="88" width="202.75" height="30" as="geometry" />
        </mxCell>
        <mxCell id="iNIz_9RFhrjVPNJya08O-35" value="" style="shape=partialRectangle;connectable=0;fillColor=none;top=0;left=0;bottom=0;right=0;editable=1;overflow=hidden;whiteSpace=wrap;html=1;" parent="iNIz_9RFhrjVPNJya08O-34" vertex="1">
          <mxGeometry width="30" height="30" as="geometry">
            <mxRectangle width="30" height="30" as="alternateBounds" />
          </mxGeometry>
        </mxCell>
        <mxCell id="iNIz_9RFhrjVPNJya08O-36" value="ownerOccupied NUMERIC" style="shape=partialRectangle;connectable=0;fillColor=none;top=0;left=0;bottom=0;right=0;align=left;spacingLeft=6;overflow=hidden;whiteSpace=wrap;html=1;" parent="iNIz_9RFhrjVPNJya08O-34" vertex="1">
          <mxGeometry x="30" width="172.75" height="30" as="geometry">
            <mxRectangle width="172.75" height="30" as="alternateBounds" />
          </mxGeometry>
        </mxCell>
        <mxCell id="iNIz_9RFhrjVPNJya08O-40" value="Date_Dim" style="shape=table;startSize=32;container=1;collapsible=1;childLayout=tableLayout;fixedRows=1;rowLines=0;fontStyle=1;align=center;resizeLast=1;html=1;" parent="1" vertex="1">
          <mxGeometry x="692" y="-124" width="207.75" height="194" as="geometry" />
        </mxCell>
        <mxCell id="iNIz_9RFhrjVPNJya08O-41" value="" style="shape=tableRow;horizontal=0;startSize=0;swimlaneHead=0;swimlaneBody=0;fillColor=none;collapsible=0;dropTarget=0;points=[[0,0.5],[1,0.5]];portConstraint=eastwest;top=0;left=0;right=0;bottom=1;" parent="iNIz_9RFhrjVPNJya08O-40" vertex="1">
          <mxGeometry y="32" width="207.75" height="21" as="geometry" />
        </mxCell>
        <mxCell id="iNIz_9RFhrjVPNJya08O-42" value="PK" style="shape=partialRectangle;connectable=0;fillColor=none;top=0;left=0;bottom=0;right=0;fontStyle=1;overflow=hidden;whiteSpace=wrap;html=1;" parent="iNIz_9RFhrjVPNJya08O-41" vertex="1">
          <mxGeometry width="20" height="21" as="geometry">
            <mxRectangle width="20" height="21" as="alternateBounds" />
          </mxGeometry>
        </mxCell>
        <mxCell id="iNIz_9RFhrjVPNJya08O-43" value="date_id" style="shape=partialRectangle;connectable=0;fillColor=none;top=0;left=0;bottom=0;right=0;align=left;spacingLeft=6;fontStyle=5;overflow=hidden;whiteSpace=wrap;html=1;" parent="iNIz_9RFhrjVPNJya08O-41" vertex="1">
          <mxGeometry x="20" width="187.75" height="21" as="geometry">
            <mxRectangle width="187.75" height="21" as="alternateBounds" />
          </mxGeometry>
        </mxCell>
        <mxCell id="iNIz_9RFhrjVPNJya08O-44" value="" style="shape=tableRow;horizontal=0;startSize=0;swimlaneHead=0;swimlaneBody=0;fillColor=none;collapsible=0;dropTarget=0;points=[[0,0.5],[1,0.5]];portConstraint=eastwest;top=0;left=0;right=0;bottom=0;" parent="iNIz_9RFhrjVPNJya08O-40" vertex="1">
          <mxGeometry y="53" width="207.75" height="30" as="geometry" />
        </mxCell>
        <mxCell id="iNIz_9RFhrjVPNJya08O-45" value="" style="shape=partialRectangle;connectable=0;fillColor=none;top=0;left=0;bottom=0;right=0;editable=1;overflow=hidden;whiteSpace=wrap;html=1;" parent="iNIz_9RFhrjVPNJya08O-44" vertex="1">
          <mxGeometry width="20" height="30" as="geometry">
            <mxRectangle width="20" height="30" as="alternateBounds" />
          </mxGeometry>
        </mxCell>
        <mxCell id="iNIz_9RFhrjVPNJya08O-46" value="date_name VARCHAR(10)" style="shape=partialRectangle;connectable=0;fillColor=none;top=0;left=0;bottom=0;right=0;align=left;spacingLeft=6;overflow=hidden;whiteSpace=wrap;html=1;" parent="iNIz_9RFhrjVPNJya08O-44" vertex="1">
          <mxGeometry x="20" width="187.75" height="30" as="geometry">
            <mxRectangle width="187.75" height="30" as="alternateBounds" />
          </mxGeometry>
        </mxCell>
        <mxCell id="iNIz_9RFhrjVPNJya08O-47" value="" style="shape=tableRow;horizontal=0;startSize=0;swimlaneHead=0;swimlaneBody=0;fillColor=none;collapsible=0;dropTarget=0;points=[[0,0.5],[1,0.5]];portConstraint=eastwest;top=0;left=0;right=0;bottom=0;" parent="iNIz_9RFhrjVPNJya08O-40" vertex="1">
          <mxGeometry y="83" width="207.75" height="30" as="geometry" />
        </mxCell>
        <mxCell id="iNIz_9RFhrjVPNJya08O-48" value="" style="shape=partialRectangle;connectable=0;fillColor=none;top=0;left=0;bottom=0;right=0;editable=1;overflow=hidden;whiteSpace=wrap;html=1;" parent="iNIz_9RFhrjVPNJya08O-47" vertex="1">
          <mxGeometry width="20" height="30" as="geometry">
            <mxRectangle width="20" height="30" as="alternateBounds" />
          </mxGeometry>
        </mxCell>
        <mxCell id="iNIz_9RFhrjVPNJya08O-49" value="quarter FLOAT&lt;div&gt;&lt;br&gt;&lt;/div&gt;" style="shape=partialRectangle;connectable=0;fillColor=none;top=0;left=0;bottom=0;right=0;align=left;spacingLeft=6;overflow=hidden;whiteSpace=wrap;html=1;" parent="iNIz_9RFhrjVPNJya08O-47" vertex="1">
          <mxGeometry x="20" width="187.75" height="30" as="geometry">
            <mxRectangle width="187.75" height="30" as="alternateBounds" />
          </mxGeometry>
        </mxCell>
        <mxCell id="iNIz_9RFhrjVPNJya08O-50" value="" style="shape=tableRow;horizontal=0;startSize=0;swimlaneHead=0;swimlaneBody=0;fillColor=none;collapsible=0;dropTarget=0;points=[[0,0.5],[1,0.5]];portConstraint=eastwest;top=0;left=0;right=0;bottom=0;" parent="iNIz_9RFhrjVPNJya08O-40" vertex="1">
          <mxGeometry y="113" width="207.75" height="30" as="geometry" />
        </mxCell>
        <mxCell id="iNIz_9RFhrjVPNJya08O-51" value="" style="shape=partialRectangle;connectable=0;fillColor=none;top=0;left=0;bottom=0;right=0;editable=1;overflow=hidden;whiteSpace=wrap;html=1;" parent="iNIz_9RFhrjVPNJya08O-50" vertex="1">
          <mxGeometry width="20" height="30" as="geometry">
            <mxRectangle width="20" height="30" as="alternateBounds" />
          </mxGeometry>
        </mxCell>
        <mxCell id="iNIz_9RFhrjVPNJya08O-52" value="year FLOAT" style="shape=partialRectangle;connectable=0;fillColor=none;top=0;left=0;bottom=0;right=0;align=left;spacingLeft=6;overflow=hidden;whiteSpace=wrap;html=1;" parent="iNIz_9RFhrjVPNJya08O-50" vertex="1">
          <mxGeometry x="20" width="187.75" height="30" as="geometry">
            <mxRectangle width="187.75" height="30" as="alternateBounds" />
          </mxGeometry>
        </mxCell>
        <mxCell id="iNIz_9RFhrjVPNJya08O-207" value="" style="shape=tableRow;horizontal=0;startSize=0;swimlaneHead=0;swimlaneBody=0;fillColor=none;collapsible=0;dropTarget=0;points=[[0,0.5],[1,0.5]];portConstraint=eastwest;top=0;left=0;right=0;bottom=0;" parent="iNIz_9RFhrjVPNJya08O-40" vertex="1">
          <mxGeometry y="143" width="207.75" height="30" as="geometry" />
        </mxCell>
        <mxCell id="iNIz_9RFhrjVPNJya08O-208" value="" style="shape=partialRectangle;connectable=0;fillColor=none;top=0;left=0;bottom=0;right=0;editable=1;overflow=hidden;whiteSpace=wrap;html=1;" parent="iNIz_9RFhrjVPNJya08O-207" vertex="1">
          <mxGeometry width="20" height="30" as="geometry">
            <mxRectangle width="20" height="30" as="alternateBounds" />
          </mxGeometry>
        </mxCell>
        <mxCell id="iNIz_9RFhrjVPNJya08O-209" value="lastSaleDate DATE" style="shape=partialRectangle;connectable=0;fillColor=none;top=0;left=0;bottom=0;right=0;align=left;spacingLeft=6;overflow=hidden;whiteSpace=wrap;html=1;" parent="iNIz_9RFhrjVPNJya08O-207" vertex="1">
          <mxGeometry x="20" width="187.75" height="30" as="geometry">
            <mxRectangle width="187.75" height="30" as="alternateBounds" />
          </mxGeometry>
        </mxCell>
        <mxCell id="iNIz_9RFhrjVPNJya08O-210" value="" style="shape=tableRow;horizontal=0;startSize=0;swimlaneHead=0;swimlaneBody=0;fillColor=none;collapsible=0;dropTarget=0;points=[[0,0.5],[1,0.5]];portConstraint=eastwest;top=0;left=0;right=0;bottom=0;" parent="iNIz_9RFhrjVPNJya08O-40" vertex="1">
          <mxGeometry y="173" width="207.75" height="20" as="geometry" />
        </mxCell>
        <mxCell id="iNIz_9RFhrjVPNJya08O-211" value="" style="shape=partialRectangle;connectable=0;fillColor=none;top=0;left=0;bottom=0;right=0;editable=1;overflow=hidden;whiteSpace=wrap;html=1;" parent="iNIz_9RFhrjVPNJya08O-210" vertex="1">
          <mxGeometry width="20" height="20" as="geometry">
            <mxRectangle width="20" height="20" as="alternateBounds" />
          </mxGeometry>
        </mxCell>
        <mxCell id="iNIz_9RFhrjVPNJya08O-212" value="" style="shape=partialRectangle;connectable=0;fillColor=none;top=0;left=0;bottom=0;right=0;align=left;spacingLeft=6;overflow=hidden;whiteSpace=wrap;html=1;" parent="iNIz_9RFhrjVPNJya08O-210" vertex="1">
          <mxGeometry x="20" width="187.75" height="20" as="geometry">
            <mxRectangle width="187.75" height="20" as="alternateBounds" />
          </mxGeometry>
        </mxCell>
        <mxCell id="iNIz_9RFhrjVPNJya08O-53" value="Property_Dim" style="shape=table;startSize=23;container=1;collapsible=1;childLayout=tableLayout;fixedRows=1;rowLines=0;fontStyle=1;align=center;resizeLast=1;html=1;" parent="1" vertex="1">
          <mxGeometry x="18" y="-201" width="180" height="348" as="geometry" />
        </mxCell>
        <mxCell id="iNIz_9RFhrjVPNJya08O-54" value="" style="shape=tableRow;horizontal=0;startSize=0;swimlaneHead=0;swimlaneBody=0;fillColor=none;collapsible=0;dropTarget=0;points=[[0,0.5],[1,0.5]];portConstraint=eastwest;top=0;left=0;right=0;bottom=1;" parent="iNIz_9RFhrjVPNJya08O-53" vertex="1">
          <mxGeometry y="23" width="180" height="30" as="geometry" />
        </mxCell>
        <mxCell id="iNIz_9RFhrjVPNJya08O-55" value="PK" style="shape=partialRectangle;connectable=0;fillColor=none;top=0;left=0;bottom=0;right=0;fontStyle=1;overflow=hidden;whiteSpace=wrap;html=1;" parent="iNIz_9RFhrjVPNJya08O-54" vertex="1">
          <mxGeometry width="30" height="30" as="geometry">
            <mxRectangle width="30" height="30" as="alternateBounds" />
          </mxGeometry>
        </mxCell>
        <mxCell id="iNIz_9RFhrjVPNJya08O-56" value="property_id" style="shape=partialRectangle;connectable=0;fillColor=none;top=0;left=0;bottom=0;right=0;align=left;spacingLeft=6;fontStyle=5;overflow=hidden;whiteSpace=wrap;html=1;" parent="iNIz_9RFhrjVPNJya08O-54" vertex="1">
          <mxGeometry x="30" width="150" height="30" as="geometry">
            <mxRectangle width="150" height="30" as="alternateBounds" />
          </mxGeometry>
        </mxCell>
        <mxCell id="iNIz_9RFhrjVPNJya08O-57" value="" style="shape=tableRow;horizontal=0;startSize=0;swimlaneHead=0;swimlaneBody=0;fillColor=none;collapsible=0;dropTarget=0;points=[[0,0.5],[1,0.5]];portConstraint=eastwest;top=0;left=0;right=0;bottom=0;" parent="iNIz_9RFhrjVPNJya08O-53" vertex="1">
          <mxGeometry y="53" width="180" height="30" as="geometry" />
        </mxCell>
        <mxCell id="iNIz_9RFhrjVPNJya08O-58" value="" style="shape=partialRectangle;connectable=0;fillColor=none;top=0;left=0;bottom=0;right=0;editable=1;overflow=hidden;whiteSpace=wrap;html=1;" parent="iNIz_9RFhrjVPNJya08O-57" vertex="1">
          <mxGeometry width="30" height="30" as="geometry">
            <mxRectangle width="30" height="30" as="alternateBounds" />
          </mxGeometry>
        </mxCell>
        <mxCell id="iNIz_9RFhrjVPNJya08O-59" value="propertyType TEXT" style="shape=partialRectangle;connectable=0;fillColor=none;top=0;left=0;bottom=0;right=0;align=left;spacingLeft=6;overflow=hidden;whiteSpace=wrap;html=1;" parent="iNIz_9RFhrjVPNJya08O-57" vertex="1">
          <mxGeometry x="30" width="150" height="30" as="geometry">
            <mxRectangle width="150" height="30" as="alternateBounds" />
          </mxGeometry>
        </mxCell>
        <mxCell id="iNIz_9RFhrjVPNJya08O-60" value="" style="shape=tableRow;horizontal=0;startSize=0;swimlaneHead=0;swimlaneBody=0;fillColor=none;collapsible=0;dropTarget=0;points=[[0,0.5],[1,0.5]];portConstraint=eastwest;top=0;left=0;right=0;bottom=0;" parent="iNIz_9RFhrjVPNJya08O-53" vertex="1">
          <mxGeometry y="83" width="180" height="30" as="geometry" />
        </mxCell>
        <mxCell id="iNIz_9RFhrjVPNJya08O-61" value="" style="shape=partialRectangle;connectable=0;fillColor=none;top=0;left=0;bottom=0;right=0;editable=1;overflow=hidden;whiteSpace=wrap;html=1;" parent="iNIz_9RFhrjVPNJya08O-60" vertex="1">
          <mxGeometry width="30" height="30" as="geometry">
            <mxRectangle width="30" height="30" as="alternateBounds" />
          </mxGeometry>
        </mxCell>
        <mxCell id="iNIz_9RFhrjVPNJya08O-62" value="assessorID TEXT" style="shape=partialRectangle;connectable=0;fillColor=none;top=0;left=0;bottom=0;right=0;align=left;spacingLeft=6;overflow=hidden;whiteSpace=wrap;html=1;" parent="iNIz_9RFhrjVPNJya08O-60" vertex="1">
          <mxGeometry x="30" width="150" height="30" as="geometry">
            <mxRectangle width="150" height="30" as="alternateBounds" />
          </mxGeometry>
        </mxCell>
        <mxCell id="iNIz_9RFhrjVPNJya08O-63" value="" style="shape=tableRow;horizontal=0;startSize=0;swimlaneHead=0;swimlaneBody=0;fillColor=none;collapsible=0;dropTarget=0;points=[[0,0.5],[1,0.5]];portConstraint=eastwest;top=0;left=0;right=0;bottom=0;" parent="iNIz_9RFhrjVPNJya08O-53" vertex="1">
          <mxGeometry y="113" width="180" height="42" as="geometry" />
        </mxCell>
        <mxCell id="iNIz_9RFhrjVPNJya08O-64" value="&lt;div&gt;&lt;br/&gt;&lt;/div&gt;" style="shape=partialRectangle;connectable=0;fillColor=none;top=0;left=0;bottom=0;right=0;editable=1;overflow=hidden;whiteSpace=wrap;html=1;" parent="iNIz_9RFhrjVPNJya08O-63" vertex="1">
          <mxGeometry width="30" height="42" as="geometry">
            <mxRectangle width="30" height="42" as="alternateBounds" />
          </mxGeometry>
        </mxCell>
        <mxCell id="iNIz_9RFhrjVPNJya08O-65" value="bedrooms NUMERIC" style="shape=partialRectangle;connectable=0;fillColor=none;top=0;left=0;bottom=0;right=0;align=left;spacingLeft=6;overflow=hidden;whiteSpace=wrap;html=1;" parent="iNIz_9RFhrjVPNJya08O-63" vertex="1">
          <mxGeometry x="30" width="150" height="42" as="geometry">
            <mxRectangle width="150" height="42" as="alternateBounds" />
          </mxGeometry>
        </mxCell>
        <mxCell id="iNIz_9RFhrjVPNJya08O-179" value="" style="shape=tableRow;horizontal=0;startSize=0;swimlaneHead=0;swimlaneBody=0;fillColor=none;collapsible=0;dropTarget=0;points=[[0,0.5],[1,0.5]];portConstraint=eastwest;top=0;left=0;right=0;bottom=0;" parent="iNIz_9RFhrjVPNJya08O-53" vertex="1">
          <mxGeometry y="155" width="180" height="31" as="geometry" />
        </mxCell>
        <mxCell id="iNIz_9RFhrjVPNJya08O-180" value="&lt;div&gt;&lt;br/&gt;&lt;/div&gt;" style="shape=partialRectangle;connectable=0;fillColor=none;top=0;left=0;bottom=0;right=0;editable=1;overflow=hidden;whiteSpace=wrap;html=1;" parent="iNIz_9RFhrjVPNJya08O-179" vertex="1">
          <mxGeometry width="30" height="31" as="geometry">
            <mxRectangle width="30" height="31" as="alternateBounds" />
          </mxGeometry>
        </mxCell>
        <mxCell id="iNIz_9RFhrjVPNJya08O-181" value="bathroms NUMERIC" style="shape=partialRectangle;connectable=0;fillColor=none;top=0;left=0;bottom=0;right=0;align=left;spacingLeft=6;overflow=hidden;whiteSpace=wrap;html=1;" parent="iNIz_9RFhrjVPNJya08O-179" vertex="1">
          <mxGeometry x="30" width="150" height="31" as="geometry">
            <mxRectangle width="150" height="31" as="alternateBounds" />
          </mxGeometry>
        </mxCell>
        <mxCell id="iNIz_9RFhrjVPNJya08O-182" value="" style="shape=tableRow;horizontal=0;startSize=0;swimlaneHead=0;swimlaneBody=0;fillColor=none;collapsible=0;dropTarget=0;points=[[0,0.5],[1,0.5]];portConstraint=eastwest;top=0;left=0;right=0;bottom=0;" parent="iNIz_9RFhrjVPNJya08O-53" vertex="1">
          <mxGeometry y="186" width="180" height="31" as="geometry" />
        </mxCell>
        <mxCell id="iNIz_9RFhrjVPNJya08O-183" value="&lt;div&gt;&lt;br/&gt;&lt;/div&gt;" style="shape=partialRectangle;connectable=0;fillColor=none;top=0;left=0;bottom=0;right=0;editable=1;overflow=hidden;whiteSpace=wrap;html=1;" parent="iNIz_9RFhrjVPNJya08O-182" vertex="1">
          <mxGeometry width="30" height="31" as="geometry">
            <mxRectangle width="30" height="31" as="alternateBounds" />
          </mxGeometry>
        </mxCell>
        <mxCell id="iNIz_9RFhrjVPNJya08O-184" value="squareFootage NUMERIC" style="shape=partialRectangle;connectable=0;fillColor=none;top=0;left=0;bottom=0;right=0;align=left;spacingLeft=6;overflow=hidden;whiteSpace=wrap;html=1;" parent="iNIz_9RFhrjVPNJya08O-182" vertex="1">
          <mxGeometry x="30" width="150" height="31" as="geometry">
            <mxRectangle width="150" height="31" as="alternateBounds" />
          </mxGeometry>
        </mxCell>
        <mxCell id="iNIz_9RFhrjVPNJya08O-185" value="" style="shape=tableRow;horizontal=0;startSize=0;swimlaneHead=0;swimlaneBody=0;fillColor=none;collapsible=0;dropTarget=0;points=[[0,0.5],[1,0.5]];portConstraint=eastwest;top=0;left=0;right=0;bottom=0;" parent="iNIz_9RFhrjVPNJya08O-53" vertex="1">
          <mxGeometry y="217" width="180" height="31" as="geometry" />
        </mxCell>
        <mxCell id="iNIz_9RFhrjVPNJya08O-186" value="&lt;div&gt;&lt;br/&gt;&lt;/div&gt;" style="shape=partialRectangle;connectable=0;fillColor=none;top=0;left=0;bottom=0;right=0;editable=1;overflow=hidden;whiteSpace=wrap;html=1;" parent="iNIz_9RFhrjVPNJya08O-185" vertex="1">
          <mxGeometry width="30" height="31" as="geometry">
            <mxRectangle width="30" height="31" as="alternateBounds" />
          </mxGeometry>
        </mxCell>
        <mxCell id="iNIz_9RFhrjVPNJya08O-187" value="yearBuilt NUMERIC" style="shape=partialRectangle;connectable=0;fillColor=none;top=0;left=0;bottom=0;right=0;align=left;spacingLeft=6;overflow=hidden;whiteSpace=wrap;html=1;" parent="iNIz_9RFhrjVPNJya08O-185" vertex="1">
          <mxGeometry x="30" width="150" height="31" as="geometry">
            <mxRectangle width="150" height="31" as="alternateBounds" />
          </mxGeometry>
        </mxCell>
        <mxCell id="iNIz_9RFhrjVPNJya08O-188" value="" style="shape=tableRow;horizontal=0;startSize=0;swimlaneHead=0;swimlaneBody=0;fillColor=none;collapsible=0;dropTarget=0;points=[[0,0.5],[1,0.5]];portConstraint=eastwest;top=0;left=0;right=0;bottom=0;" parent="iNIz_9RFhrjVPNJya08O-53" vertex="1">
          <mxGeometry y="248" width="180" height="31" as="geometry" />
        </mxCell>
        <mxCell id="iNIz_9RFhrjVPNJya08O-189" value="&lt;div&gt;&lt;br/&gt;&lt;/div&gt;" style="shape=partialRectangle;connectable=0;fillColor=none;top=0;left=0;bottom=0;right=0;editable=1;overflow=hidden;whiteSpace=wrap;html=1;" parent="iNIz_9RFhrjVPNJya08O-188" vertex="1">
          <mxGeometry width="30" height="31" as="geometry">
            <mxRectangle width="30" height="31" as="alternateBounds" />
          </mxGeometry>
        </mxCell>
        <mxCell id="iNIz_9RFhrjVPNJya08O-190" value="leagalDescription TEXT" style="shape=partialRectangle;connectable=0;fillColor=none;top=0;left=0;bottom=0;right=0;align=left;spacingLeft=6;overflow=hidden;whiteSpace=wrap;html=1;" parent="iNIz_9RFhrjVPNJya08O-188" vertex="1">
          <mxGeometry x="30" width="150" height="31" as="geometry">
            <mxRectangle width="150" height="31" as="alternateBounds" />
          </mxGeometry>
        </mxCell>
        <mxCell id="iNIz_9RFhrjVPNJya08O-191" value="" style="shape=tableRow;horizontal=0;startSize=0;swimlaneHead=0;swimlaneBody=0;fillColor=none;collapsible=0;dropTarget=0;points=[[0,0.5],[1,0.5]];portConstraint=eastwest;top=0;left=0;right=0;bottom=0;" parent="iNIz_9RFhrjVPNJya08O-53" vertex="1">
          <mxGeometry y="279" width="180" height="31" as="geometry" />
        </mxCell>
        <mxCell id="iNIz_9RFhrjVPNJya08O-192" value="&lt;div&gt;&lt;br/&gt;&lt;/div&gt;" style="shape=partialRectangle;connectable=0;fillColor=none;top=0;left=0;bottom=0;right=0;editable=1;overflow=hidden;whiteSpace=wrap;html=1;" parent="iNIz_9RFhrjVPNJya08O-191" vertex="1">
          <mxGeometry width="30" height="31" as="geometry">
            <mxRectangle width="30" height="31" as="alternateBounds" />
          </mxGeometry>
        </mxCell>
        <mxCell id="iNIz_9RFhrjVPNJya08O-193" value="subdivision TEXT" style="shape=partialRectangle;connectable=0;fillColor=none;top=0;left=0;bottom=0;right=0;align=left;spacingLeft=6;overflow=hidden;whiteSpace=wrap;html=1;" parent="iNIz_9RFhrjVPNJya08O-191" vertex="1">
          <mxGeometry x="30" width="150" height="31" as="geometry">
            <mxRectangle width="150" height="31" as="alternateBounds" />
          </mxGeometry>
        </mxCell>
        <mxCell id="iNIz_9RFhrjVPNJya08O-195" value="" style="shape=tableRow;horizontal=0;startSize=0;swimlaneHead=0;swimlaneBody=0;fillColor=none;collapsible=0;dropTarget=0;points=[[0,0.5],[1,0.5]];portConstraint=eastwest;top=0;left=0;right=0;bottom=0;" parent="iNIz_9RFhrjVPNJya08O-53" vertex="1">
          <mxGeometry y="310" width="180" height="31" as="geometry" />
        </mxCell>
        <mxCell id="iNIz_9RFhrjVPNJya08O-196" value="&lt;div&gt;&lt;br/&gt;&lt;/div&gt;" style="shape=partialRectangle;connectable=0;fillColor=none;top=0;left=0;bottom=0;right=0;editable=1;overflow=hidden;whiteSpace=wrap;html=1;" parent="iNIz_9RFhrjVPNJya08O-195" vertex="1">
          <mxGeometry width="30" height="31" as="geometry">
            <mxRectangle width="30" height="31" as="alternateBounds" />
          </mxGeometry>
        </mxCell>
        <mxCell id="iNIz_9RFhrjVPNJya08O-197" value="zoning TEXT" style="shape=partialRectangle;connectable=0;fillColor=none;top=0;left=0;bottom=0;right=0;align=left;spacingLeft=6;overflow=hidden;whiteSpace=wrap;html=1;" parent="iNIz_9RFhrjVPNJya08O-195" vertex="1">
          <mxGeometry x="30" width="150" height="31" as="geometry">
            <mxRectangle width="150" height="31" as="alternateBounds" />
          </mxGeometry>
        </mxCell>
        <mxCell id="iNIz_9RFhrjVPNJya08O-138" value="Transaction_fact" style="shape=table;startSize=32;container=1;collapsible=1;childLayout=tableLayout;fixedRows=1;rowLines=0;fontStyle=1;align=center;resizeLast=1;html=1;" parent="1" vertex="1">
          <mxGeometry x="354" y="-139" width="205.75" height="335" as="geometry" />
        </mxCell>
        <mxCell id="iNIz_9RFhrjVPNJya08O-139" value="" style="shape=tableRow;horizontal=0;startSize=0;swimlaneHead=0;swimlaneBody=0;fillColor=none;collapsible=0;dropTarget=0;points=[[0,0.5],[1,0.5]];portConstraint=eastwest;top=0;left=0;right=0;bottom=1;" parent="iNIz_9RFhrjVPNJya08O-138" vertex="1">
          <mxGeometry y="32" width="205.75" height="45" as="geometry" />
        </mxCell>
        <mxCell id="iNIz_9RFhrjVPNJya08O-140" value="PK, FK" style="shape=partialRectangle;connectable=0;fillColor=none;top=0;left=0;bottom=0;right=0;fontStyle=1;overflow=hidden;whiteSpace=wrap;html=1;" parent="iNIz_9RFhrjVPNJya08O-139" vertex="1">
          <mxGeometry width="44.75" height="45" as="geometry">
            <mxRectangle width="44.75" height="45" as="alternateBounds" />
          </mxGeometry>
        </mxCell>
        <mxCell id="iNIz_9RFhrjVPNJya08O-141" value="transaction_id" style="shape=partialRectangle;connectable=0;fillColor=none;top=0;left=0;bottom=0;right=0;align=left;spacingLeft=6;fontStyle=5;overflow=hidden;whiteSpace=wrap;html=1;" parent="iNIz_9RFhrjVPNJya08O-139" vertex="1">
          <mxGeometry x="44.75" width="161" height="45" as="geometry">
            <mxRectangle width="161" height="45" as="alternateBounds" />
          </mxGeometry>
        </mxCell>
        <mxCell id="iNIz_9RFhrjVPNJya08O-142" value="" style="shape=tableRow;horizontal=0;startSize=0;swimlaneHead=0;swimlaneBody=0;fillColor=none;collapsible=0;dropTarget=0;points=[[0,0.5],[1,0.5]];portConstraint=eastwest;top=0;left=0;right=0;bottom=0;" parent="iNIz_9RFhrjVPNJya08O-138" vertex="1">
          <mxGeometry y="77" width="205.75" height="30" as="geometry" />
        </mxCell>
        <mxCell id="iNIz_9RFhrjVPNJya08O-143" value="" style="shape=partialRectangle;connectable=0;fillColor=none;top=0;left=0;bottom=0;right=0;editable=1;overflow=hidden;whiteSpace=wrap;html=1;" parent="iNIz_9RFhrjVPNJya08O-142" vertex="1">
          <mxGeometry width="44.75" height="30" as="geometry">
            <mxRectangle width="44.75" height="30" as="alternateBounds" />
          </mxGeometry>
        </mxCell>
        <mxCell id="iNIz_9RFhrjVPNJya08O-144" value="" style="shape=partialRectangle;connectable=0;fillColor=none;top=0;left=0;bottom=0;right=0;align=left;spacingLeft=6;overflow=hidden;whiteSpace=wrap;html=1;" parent="iNIz_9RFhrjVPNJya08O-142" vertex="1">
          <mxGeometry x="44.75" width="161" height="30" as="geometry">
            <mxRectangle width="161" height="30" as="alternateBounds" />
          </mxGeometry>
        </mxCell>
        <mxCell id="iNIz_9RFhrjVPNJya08O-160" value="" style="shape=tableRow;horizontal=0;startSize=0;swimlaneHead=0;swimlaneBody=0;fillColor=none;collapsible=0;dropTarget=0;points=[[0,0.5],[1,0.5]];portConstraint=eastwest;top=0;left=0;right=0;bottom=0;" parent="iNIz_9RFhrjVPNJya08O-138" vertex="1">
          <mxGeometry y="107" width="205.75" height="30" as="geometry" />
        </mxCell>
        <mxCell id="iNIz_9RFhrjVPNJya08O-161" value="FK" style="shape=partialRectangle;connectable=0;fillColor=none;top=0;left=0;bottom=0;right=0;fontStyle=0;overflow=hidden;whiteSpace=wrap;html=1;" parent="iNIz_9RFhrjVPNJya08O-160" vertex="1">
          <mxGeometry width="44.75" height="30" as="geometry">
            <mxRectangle width="44.75" height="30" as="alternateBounds" />
          </mxGeometry>
        </mxCell>
        <mxCell id="iNIz_9RFhrjVPNJya08O-162" value="property_id" style="shape=partialRectangle;connectable=0;fillColor=none;top=0;left=0;bottom=0;right=0;align=left;spacingLeft=6;fontStyle=0;overflow=hidden;whiteSpace=wrap;html=1;" parent="iNIz_9RFhrjVPNJya08O-160" vertex="1">
          <mxGeometry x="44.75" width="161" height="30" as="geometry">
            <mxRectangle width="161" height="30" as="alternateBounds" />
          </mxGeometry>
        </mxCell>
        <mxCell id="iNIz_9RFhrjVPNJya08O-164" value="" style="shape=tableRow;horizontal=0;startSize=0;swimlaneHead=0;swimlaneBody=0;fillColor=none;collapsible=0;dropTarget=0;points=[[0,0.5],[1,0.5]];portConstraint=eastwest;top=0;left=0;right=0;bottom=0;" parent="iNIz_9RFhrjVPNJya08O-138" vertex="1">
          <mxGeometry y="137" width="205.75" height="30" as="geometry" />
        </mxCell>
        <mxCell id="iNIz_9RFhrjVPNJya08O-165" value="FK" style="shape=partialRectangle;connectable=0;fillColor=none;top=0;left=0;bottom=0;right=0;fontStyle=0;overflow=hidden;whiteSpace=wrap;html=1;" parent="iNIz_9RFhrjVPNJya08O-164" vertex="1">
          <mxGeometry width="44.75" height="30" as="geometry">
            <mxRectangle width="44.75" height="30" as="alternateBounds" />
          </mxGeometry>
        </mxCell>
        <mxCell id="iNIz_9RFhrjVPNJya08O-166" value="data_id" style="shape=partialRectangle;connectable=0;fillColor=none;top=0;left=0;bottom=0;right=0;align=left;spacingLeft=6;fontStyle=0;overflow=hidden;whiteSpace=wrap;html=1;" parent="iNIz_9RFhrjVPNJya08O-164" vertex="1">
          <mxGeometry x="44.75" width="161" height="30" as="geometry">
            <mxRectangle width="161" height="30" as="alternateBounds" />
          </mxGeometry>
        </mxCell>
        <mxCell id="iNIz_9RFhrjVPNJya08O-168" value="" style="shape=tableRow;horizontal=0;startSize=0;swimlaneHead=0;swimlaneBody=0;fillColor=none;collapsible=0;dropTarget=0;points=[[0,0.5],[1,0.5]];portConstraint=eastwest;top=0;left=0;right=0;bottom=0;" parent="iNIz_9RFhrjVPNJya08O-138" vertex="1">
          <mxGeometry y="167" width="205.75" height="24" as="geometry" />
        </mxCell>
        <mxCell id="iNIz_9RFhrjVPNJya08O-169" value="FK" style="shape=partialRectangle;connectable=0;fillColor=none;top=0;left=0;bottom=0;right=0;fontStyle=0;overflow=hidden;whiteSpace=wrap;html=1;" parent="iNIz_9RFhrjVPNJya08O-168" vertex="1">
          <mxGeometry width="44.75" height="24" as="geometry">
            <mxRectangle width="44.75" height="24" as="alternateBounds" />
          </mxGeometry>
        </mxCell>
        <mxCell id="iNIz_9RFhrjVPNJya08O-170" value="owner_id" style="shape=partialRectangle;connectable=0;fillColor=none;top=0;left=0;bottom=0;right=0;align=left;spacingLeft=6;fontStyle=0;overflow=hidden;whiteSpace=wrap;html=1;" parent="iNIz_9RFhrjVPNJya08O-168" vertex="1">
          <mxGeometry x="44.75" width="161" height="24" as="geometry">
            <mxRectangle width="161" height="24" as="alternateBounds" />
          </mxGeometry>
        </mxCell>
        <mxCell id="iNIz_9RFhrjVPNJya08O-172" value="" style="shape=tableRow;horizontal=0;startSize=0;swimlaneHead=0;swimlaneBody=0;fillColor=none;collapsible=0;dropTarget=0;points=[[0,0.5],[1,0.5]];portConstraint=eastwest;top=0;left=0;right=0;bottom=0;" parent="iNIz_9RFhrjVPNJya08O-138" vertex="1">
          <mxGeometry y="191" width="205.75" height="30" as="geometry" />
        </mxCell>
        <mxCell id="iNIz_9RFhrjVPNJya08O-173" value="FK" style="shape=partialRectangle;connectable=0;fillColor=none;top=0;left=0;bottom=0;right=0;fontStyle=0;overflow=hidden;whiteSpace=wrap;html=1;" parent="iNIz_9RFhrjVPNJya08O-172" vertex="1">
          <mxGeometry width="44.75" height="30" as="geometry">
            <mxRectangle width="44.75" height="30" as="alternateBounds" />
          </mxGeometry>
        </mxCell>
        <mxCell id="iNIz_9RFhrjVPNJya08O-174" value="features_id" style="shape=partialRectangle;connectable=0;fillColor=none;top=0;left=0;bottom=0;right=0;align=left;spacingLeft=6;fontStyle=0;overflow=hidden;whiteSpace=wrap;html=1;" parent="iNIz_9RFhrjVPNJya08O-172" vertex="1">
          <mxGeometry x="44.75" width="161" height="30" as="geometry">
            <mxRectangle width="161" height="30" as="alternateBounds" />
          </mxGeometry>
        </mxCell>
        <mxCell id="iNIz_9RFhrjVPNJya08O-176" value="" style="shape=tableRow;horizontal=0;startSize=0;swimlaneHead=0;swimlaneBody=0;fillColor=none;collapsible=0;dropTarget=0;points=[[0,0.5],[1,0.5]];portConstraint=eastwest;top=0;left=0;right=0;bottom=0;" parent="iNIz_9RFhrjVPNJya08O-138" vertex="1">
          <mxGeometry y="221" width="205.75" height="30" as="geometry" />
        </mxCell>
        <mxCell id="iNIz_9RFhrjVPNJya08O-177" value="FK" style="shape=partialRectangle;connectable=0;fillColor=none;top=0;left=0;bottom=0;right=0;fontStyle=0;overflow=hidden;whiteSpace=wrap;html=1;" parent="iNIz_9RFhrjVPNJya08O-176" vertex="1">
          <mxGeometry width="44.75" height="30" as="geometry">
            <mxRectangle width="44.75" height="30" as="alternateBounds" />
          </mxGeometry>
        </mxCell>
        <mxCell id="iNIz_9RFhrjVPNJya08O-178" value="location_id" style="shape=partialRectangle;connectable=0;fillColor=none;top=0;left=0;bottom=0;right=0;align=left;spacingLeft=6;fontStyle=0;overflow=hidden;whiteSpace=wrap;html=1;" parent="iNIz_9RFhrjVPNJya08O-176" vertex="1">
          <mxGeometry x="44.75" width="161" height="30" as="geometry">
            <mxRectangle width="161" height="30" as="alternateBounds" />
          </mxGeometry>
        </mxCell>
        <mxCell id="iNIz_9RFhrjVPNJya08O-152" value="" style="shape=tableRow;horizontal=0;startSize=0;swimlaneHead=0;swimlaneBody=0;fillColor=none;collapsible=0;dropTarget=0;points=[[0,0.5],[1,0.5]];portConstraint=eastwest;top=0;left=0;right=0;bottom=0;" parent="iNIz_9RFhrjVPNJya08O-138" vertex="1">
          <mxGeometry y="251" width="205.75" height="30" as="geometry" />
        </mxCell>
        <mxCell id="iNIz_9RFhrjVPNJya08O-153" value="" style="shape=partialRectangle;connectable=0;fillColor=none;top=0;left=0;bottom=0;right=0;fontStyle=0;overflow=hidden;whiteSpace=wrap;html=1;" parent="iNIz_9RFhrjVPNJya08O-152" vertex="1">
          <mxGeometry width="44.75" height="30" as="geometry">
            <mxRectangle width="44.75" height="30" as="alternateBounds" />
          </mxGeometry>
        </mxCell>
        <mxCell id="iNIz_9RFhrjVPNJya08O-154" value="lastSalePrice NUMERIC" style="shape=partialRectangle;connectable=0;fillColor=none;top=0;left=0;bottom=0;right=0;align=left;spacingLeft=6;fontStyle=0;overflow=hidden;whiteSpace=wrap;html=1;" parent="iNIz_9RFhrjVPNJya08O-152" vertex="1">
          <mxGeometry x="44.75" width="161" height="30" as="geometry">
            <mxRectangle width="161" height="30" as="alternateBounds" />
          </mxGeometry>
        </mxCell>
        <mxCell id="iNIz_9RFhrjVPNJya08O-145" value="" style="shape=tableRow;horizontal=0;startSize=0;swimlaneHead=0;swimlaneBody=0;fillColor=none;collapsible=0;dropTarget=0;points=[[0,0.5],[1,0.5]];portConstraint=eastwest;top=0;left=0;right=0;bottom=0;" parent="iNIz_9RFhrjVPNJya08O-138" vertex="1">
          <mxGeometry y="281" width="205.75" height="34" as="geometry" />
        </mxCell>
        <mxCell id="iNIz_9RFhrjVPNJya08O-146" value="" style="shape=partialRectangle;connectable=0;fillColor=none;top=0;left=0;bottom=0;right=0;editable=1;overflow=hidden;whiteSpace=wrap;html=1;" parent="iNIz_9RFhrjVPNJya08O-145" vertex="1">
          <mxGeometry width="44.75" height="34" as="geometry">
            <mxRectangle width="44.75" height="34" as="alternateBounds" />
          </mxGeometry>
        </mxCell>
        <mxCell id="iNIz_9RFhrjVPNJya08O-147" value="propertyTaxes NUMERIC" style="shape=partialRectangle;connectable=0;fillColor=none;top=0;left=0;bottom=0;right=0;align=left;spacingLeft=6;overflow=hidden;whiteSpace=wrap;html=1;" parent="iNIz_9RFhrjVPNJya08O-145" vertex="1">
          <mxGeometry x="44.75" width="161" height="34" as="geometry">
            <mxRectangle width="161" height="34" as="alternateBounds" />
          </mxGeometry>
        </mxCell>
        <mxCell id="iNIz_9RFhrjVPNJya08O-148" value="" style="shape=tableRow;horizontal=0;startSize=0;swimlaneHead=0;swimlaneBody=0;fillColor=none;collapsible=0;dropTarget=0;points=[[0,0.5],[1,0.5]];portConstraint=eastwest;top=0;left=0;right=0;bottom=0;" parent="iNIz_9RFhrjVPNJya08O-138" vertex="1">
          <mxGeometry y="315" width="205.75" height="20" as="geometry" />
        </mxCell>
        <mxCell id="iNIz_9RFhrjVPNJya08O-149" value="" style="shape=partialRectangle;connectable=0;fillColor=none;top=0;left=0;bottom=0;right=0;editable=1;overflow=hidden;whiteSpace=wrap;html=1;" parent="iNIz_9RFhrjVPNJya08O-148" vertex="1">
          <mxGeometry width="44.75" height="20" as="geometry">
            <mxRectangle width="44.75" height="20" as="alternateBounds" />
          </mxGeometry>
        </mxCell>
        <mxCell id="iNIz_9RFhrjVPNJya08O-150" value="taxAssessments TEXT" style="shape=partialRectangle;connectable=0;fillColor=none;top=0;left=0;bottom=0;right=0;align=left;spacingLeft=6;overflow=hidden;whiteSpace=wrap;html=1;" parent="iNIz_9RFhrjVPNJya08O-148" vertex="1">
          <mxGeometry x="44.75" width="161" height="20" as="geometry">
            <mxRectangle width="161" height="20" as="alternateBounds" />
          </mxGeometry>
        </mxCell>
        <mxCell id="iNIz_9RFhrjVPNJya08O-228" value="" style="shape=stencil(fZbdcgIhDIWfZm8zQAg/17Z9j85U606tdqz9e/tmZ0c0uJ47xP0I5JwEBl59bp8/1kNwn6fj4W39M76ctgM/DCGM++36OJ50NPDjwKvN4bh+PR6+9i/z74/n6ctp9H74nlb4nbmSKZeJCu5vngmZ6jzzNAO7cX8FVKEsBuBKrgKg9oAE8gkCbLeUhEoEQKSUDZDLeWYRKIl8MEDRmHwfyBrBG6Amyu4+kDxxMoB3jhwgYu7TVAsVkFcWCs4CTBEoF4RctKeOxHIf8IXYpikHikAIf+MNUW94AGSSaoAoFIE3AlOyeWU+p2E5S9yfQZcQILVuQOwZdJNoS9Ls3wA5u2XZTIHECqeJ9kDpSaauRiNVcAY1QhdBzeLBli5WazpkSsBLV25uRaqWRyFawTQzRRIQYirJzq5atkBqLfouwqUxLBepthWb10vrWZY6UOAeyKCCtDV625mm9gmUC4Wc3VLJMMIE1BsA2FW9JraVlQB7n3c9oMKhCLEvIM1zBPZ25/umNQ1tVEC2G+fFCC8g398O2hNQuQlVu752DBfA+q0ptnqO5JFmeuIuo9DY7KjY71UxdJV4EntifPWorW++R/dC4t7V3DlIB5cHx2bc7eb3yvX//QNFp+bHDT/+Aw==);lineShape=1;strokeColor=default;" parent="1" vertex="1">
          <mxGeometry x="640.8679608424759" y="199.87531245851937" width="4.672539772115215" height="4.665236216357243" as="geometry" />
        </mxCell>
        <mxCell id="iNIz_9RFhrjVPNJya08O-231" value="" style="edgeStyle=entityRelationEdgeStyle;fontSize=12;html=1;endArrow=ERmandOne;startArrow=ERmandOne;rounded=0;startSize=8;endSize=8;curved=1;" parent="1" source="iNIz_9RFhrjVPNJya08O-164" edge="1">
          <mxGeometry width="100" height="100" relative="1" as="geometry">
            <mxPoint x="608" y="17" as="sourcePoint" />
            <mxPoint x="708" y="-83" as="targetPoint" />
          </mxGeometry>
        </mxCell>
        <mxCell id="iNIz_9RFhrjVPNJya08O-232" value="" style="edgeStyle=entityRelationEdgeStyle;fontSize=12;html=1;endArrow=ERmandOne;startArrow=ERmandOne;rounded=0;startSize=8;endSize=8;curved=1;entryX=0;entryY=0.5;entryDx=0;entryDy=0;" parent="1" source="iNIz_9RFhrjVPNJya08O-54" target="iNIz_9RFhrjVPNJya08O-160" edge="1">
          <mxGeometry width="100" height="100" relative="1" as="geometry">
            <mxPoint x="271" y="66" as="sourcePoint" />
            <mxPoint x="371" y="-34" as="targetPoint" />
          </mxGeometry>
        </mxCell>
        <mxCell id="iNIz_9RFhrjVPNJya08O-233" value="" style="edgeStyle=entityRelationEdgeStyle;fontSize=12;html=1;endArrow=ERmandOne;startArrow=ERmandOne;rounded=0;startSize=8;endSize=8;curved=1;" parent="1" source="iNIz_9RFhrjVPNJya08O-2" target="iNIz_9RFhrjVPNJya08O-176" edge="1">
          <mxGeometry width="100" height="100" relative="1" as="geometry">
            <mxPoint x="238" y="257.21" as="sourcePoint" />
            <mxPoint x="371" y="147.20999999999998" as="targetPoint" />
            <Array as="points">
              <mxPoint x="375" y="232.20999999999998" />
              <mxPoint x="312" y="224.20999999999998" />
            </Array>
          </mxGeometry>
        </mxCell>
        <mxCell id="iNIz_9RFhrjVPNJya08O-235" value="" style="edgeStyle=entityRelationEdgeStyle;fontSize=12;html=1;endArrow=ERmandOne;startArrow=ERmandOne;rounded=0;startSize=8;endSize=8;curved=1;entryX=0;entryY=0.5;entryDx=0;entryDy=0;exitX=1;exitY=0.5;exitDx=0;exitDy=0;" parent="1" source="iNIz_9RFhrjVPNJya08O-168" target="iNIz_9RFhrjVPNJya08O-28" edge="1">
          <mxGeometry width="100" height="100" relative="1" as="geometry">
            <mxPoint x="593.2" y="189" as="sourcePoint" />
            <mxPoint x="693.2" y="89" as="targetPoint" />
          </mxGeometry>
        </mxCell>
        <mxCell id="iNIz_9RFhrjVPNJya08O-236" value="" style="edgeStyle=entityRelationEdgeStyle;fontSize=12;html=1;endArrow=ERmandOne;startArrow=ERmandOne;rounded=0;startSize=8;endSize=8;curved=1;entryX=-0.011;entryY=0.133;entryDx=0;entryDy=0;entryPerimeter=0;exitX=1;exitY=0.5;exitDx=0;exitDy=0;" parent="1" source="iNIz_9RFhrjVPNJya08O-172" target="iNIz_9RFhrjVPNJya08O-15" edge="1">
          <mxGeometry width="100" height="100" relative="1" as="geometry">
            <mxPoint x="582" y="265" as="sourcePoint" />
            <mxPoint x="664" y="186" as="targetPoint" />
            <Array as="points">
              <mxPoint x="820" y="355" />
            </Array>
          </mxGeometry>
        </mxCell>
        <mxCell id="m8Auk8nWQCwlDOA_Puqg-1" value="&lt;div style=&quot;line-height: 360%;&quot;&gt;&lt;font style=&quot;font-size: 23px;&quot;&gt;&lt;u&gt;&lt;b style=&quot;&quot;&gt;&lt;font style=&quot;color: light-dark(rgb(255, 255, 255), rgb(255, 255, 255));&quot;&gt;Entity Relationship Diagram&lt;/font&gt;&lt;/b&gt;&amp;nbsp;&lt;/u&gt;&lt;/font&gt;&lt;/div&gt;" style="text;html=1;align=center;verticalAlign=middle;whiteSpace=wrap;rounded=0;strokeColor=default;textShadow=1;" parent="1" vertex="1">
          <mxGeometry x="231.75" y="-389" width="328" height="68" as="geometry" />
        </mxCell>
        <mxCell id="m8Auk8nWQCwlDOA_Puqg-2" value="&lt;h1 style=&quot;margin-top: 0px;&quot;&gt;&lt;i style=&quot;&quot;&gt;Data Model Architecture&lt;/i&gt;&lt;/h1&gt;&lt;p&gt;&lt;b&gt;&lt;font style=&quot;font-size: 14px;&quot;&gt;Entity relationship diagram showing the data model architecture of zipco database schema postgreSQL Pipeline&amp;nbsp;&lt;/font&gt;&lt;/b&gt;&lt;/p&gt;" style="text;html=1;whiteSpace=wrap;overflow=hidden;rounded=0;" parent="1" vertex="1">
          <mxGeometry x="234" y="-316" width="338" height="118" as="geometry" />
        </mxCell>
      </root>
    </mxGraphModel>
  </diagram>
</mxfile>
